<mxfile host="app.diagrams.net" modified="2023-12-06T08:52:24.841Z" agent="Mozilla/5.0 (Windows NT 10.0; Win64; x64; rv:120.0) Gecko/20100101 Firefox/120.0" etag="6LgTf_Z0FAD4Bt1d_C3n" version="22.1.5" type="device">
  <diagram id="C5RBs43oDa-KdzZeNtuy" name="Page-1">
    <mxGraphModel dx="1364" dy="2635" grid="0" gridSize="10" guides="1" tooltips="1" connect="1" arrows="1" fold="1" page="1" pageScale="1" pageWidth="827" pageHeight="1169" math="0" shadow="0">
      <root>
        <mxCell id="WIyWlLk6GJQsqaUBKTNV-0" />
        <mxCell id="WIyWlLk6GJQsqaUBKTNV-1" parent="WIyWlLk6GJQsqaUBKTNV-0" />
        <mxCell id="380VDxpQ8Sr3hK74BQXG-16" value="ViewModel" style="swimlane;fontStyle=1;align=center;verticalAlign=top;childLayout=stackLayout;horizontal=1;startSize=26;horizontalStack=0;resizeParent=1;resizeParentMax=0;resizeLast=0;collapsible=1;marginBottom=0;whiteSpace=wrap;html=1;" parent="WIyWlLk6GJQsqaUBKTNV-1" vertex="1">
          <mxGeometry x="573" y="25" width="348" height="791" as="geometry" />
        </mxCell>
        <mxCell id="380VDxpQ8Sr3hK74BQXG-17" value="- _model: GameModel&lt;br&gt;&lt;div&gt;- _n: Int&lt;/div&gt;&lt;div&gt;- _canSave: Bool&lt;/div&gt;&lt;div&gt;- _canStart: Bool&lt;/div&gt;&lt;div&gt;- _moreInp: Bool&lt;/div&gt;&lt;div&gt;- _inRound: Bool&lt;/div&gt;&lt;div&gt;- _inps: Int[5]&lt;/div&gt;&lt;div&gt;- _activePlayer: Int&lt;/div&gt;" style="text;strokeColor=none;fillColor=none;align=left;verticalAlign=top;spacingLeft=4;spacingRight=4;overflow=hidden;rotatable=0;points=[[0,0.5],[1,0.5]];portConstraint=eastwest;whiteSpace=wrap;html=1;" parent="380VDxpQ8Sr3hK74BQXG-16" vertex="1">
          <mxGeometry y="26" width="348" height="123" as="geometry" />
        </mxCell>
        <mxCell id="380VDxpQ8Sr3hK74BQXG-18" value="" style="line;strokeWidth=1;fillColor=none;align=left;verticalAlign=middle;spacingTop=-1;spacingLeft=3;spacingRight=3;rotatable=0;labelPosition=right;points=[];portConstraint=eastwest;strokeColor=inherit;" parent="380VDxpQ8Sr3hK74BQXG-16" vertex="1">
          <mxGeometry y="149" width="348" height="8" as="geometry" />
        </mxCell>
        <mxCell id="380VDxpQ8Sr3hK74BQXG-19" value="+ ViewModel(model: GameModel) &lt;br&gt;+ void NewGameEvent(sender: Object?, N: Int) &lt;br&gt;- ClearScreen() &lt;br&gt;- GetElement(p: Pos): Int&lt;br&gt;- GetElement(i: Int, j: Int): Int&lt;br&gt;- Model_Hits(sender: Object?,e: EventData)&lt;br&gt;- Model_Fires(sender: Object?, e: EventData)&lt;br&gt;- Model_Moves(sender: Object?, e: EventData)&lt;br&gt;- Model_HpChange(sender: Object?, e: EventData)&lt;br&gt;- Model_GameOver(sender: Object?, e: EventData)&lt;br&gt;- SetOrders() &lt;br&gt;- OnNewGame(size: Int) &lt;br&gt;- StartRound() &lt;br&gt;- EndRound() &lt;br&gt;- Next() &lt;br&gt;- OnLoadGame() &lt;br&gt;- OnSaveGame() &lt;br&gt;- OnExitGame() &lt;br&gt;&lt;div&gt;&lt;br&gt;&lt;/div&gt;&lt;div&gt;&amp;lt;&amp;lt;property&amp;gt;&amp;gt;&lt;/div&gt;&lt;div&gt;+ ActivePlayer: String&lt;br&gt;+ PlayerInp: Int[5] &lt;br&gt;+ Fields: ObservableCollection&amp;lt;Field&amp;gt;&lt;br&gt;+ PossibleInps: ObservableCollection&amp;lt;String&amp;gt;&lt;br&gt;+ CanSave: Bool&lt;br&gt;+ InRound: Bool&lt;br&gt;+ CanStart: Bool&lt;br&gt;+ MoreInp: Bool&lt;br&gt;+ BoardSize: Int&lt;br&gt;+ Player1Health: Int&lt;br&gt;+ Player2Health: Int&lt;br&gt;&lt;/div&gt;&lt;div&gt;+ NewGameCommand: DelegateCommand&lt;br&gt;+ LoadGameCommand: DelegateCommand&lt;br&gt;+ SaveGameCommand: DelegateCommand&lt;br&gt;+ ExitCommand: DelegateCommand&lt;br&gt;+ SetOrdersCommand: DelegateCommand&lt;br&gt;+ NextCommand: DelegateCommand&lt;br&gt;&lt;br&gt;&lt;/div&gt;&lt;div&gt;&amp;lt;&amp;lt;event&amp;gt;&amp;gt;&lt;br&gt;&lt;/div&gt;+ ExitGame(): EventHandler&lt;br&gt;+ LoadGame(): EventHandler&lt;br&gt;+ NewGame(): EventHandler&amp;lt;int&amp;gt;&lt;br&gt;+ SaveGame(): EventHandler" style="text;strokeColor=none;fillColor=none;align=left;verticalAlign=top;spacingLeft=4;spacingRight=4;overflow=hidden;rotatable=0;points=[[0,0.5],[1,0.5]];portConstraint=eastwest;whiteSpace=wrap;html=1;" parent="380VDxpQ8Sr3hK74BQXG-16" vertex="1">
          <mxGeometry y="157" width="348" height="634" as="geometry" />
        </mxCell>
        <mxCell id="380VDxpQ8Sr3hK74BQXG-107" value="" style="endArrow=diamondThin;endFill=0;endSize=24;html=1;rounded=0;exitX=1;exitY=0.5;exitDx=0;exitDy=0;entryX=-0.003;entryY=0.283;entryDx=0;entryDy=0;entryPerimeter=0;" parent="WIyWlLk6GJQsqaUBKTNV-1" source="0ySyAdyNpUcpGRWUpj3D-6" target="380VDxpQ8Sr3hK74BQXG-19" edge="1">
          <mxGeometry width="160" relative="1" as="geometry">
            <mxPoint x="507.19600000000037" y="346.00399999999996" as="sourcePoint" />
            <mxPoint x="436" y="418.30999999999995" as="targetPoint" />
            <Array as="points" />
          </mxGeometry>
        </mxCell>
        <mxCell id="380VDxpQ8Sr3hK74BQXG-108" value="Fields" style="edgeLabel;html=1;align=center;verticalAlign=middle;resizable=0;points=[];" parent="380VDxpQ8Sr3hK74BQXG-107" vertex="1" connectable="0">
          <mxGeometry x="0.0711" y="2" relative="1" as="geometry">
            <mxPoint x="80" y="-18" as="offset" />
          </mxGeometry>
        </mxCell>
        <mxCell id="380VDxpQ8Sr3hK74BQXG-109" value="&lt;div&gt;&lt;br&gt;&lt;/div&gt;" style="edgeLabel;html=1;align=center;verticalAlign=middle;resizable=0;points=[];" parent="380VDxpQ8Sr3hK74BQXG-107" vertex="1" connectable="0">
          <mxGeometry x="0.6836" y="-1" relative="1" as="geometry">
            <mxPoint as="offset" />
          </mxGeometry>
        </mxCell>
        <mxCell id="0ySyAdyNpUcpGRWUpj3D-0" value="ViewModelBase: NotifyPropertyChanged" style="swimlane;fontStyle=1;align=center;verticalAlign=top;childLayout=stackLayout;horizontal=1;startSize=26;horizontalStack=0;resizeParent=1;resizeParentMax=0;resizeLast=0;collapsible=1;marginBottom=0;whiteSpace=wrap;html=1;" parent="WIyWlLk6GJQsqaUBKTNV-1" vertex="1">
          <mxGeometry x="54" y="958" width="348" height="98" as="geometry" />
        </mxCell>
        <mxCell id="0ySyAdyNpUcpGRWUpj3D-3" value="# OnPropertyChanged(String): void&lt;br&gt;# ViewModelBase()&lt;br&gt;«event»&lt;br&gt;+ PropertyChanged(): PropertyChangedEventHandler" style="text;strokeColor=none;fillColor=none;align=left;verticalAlign=top;spacingLeft=4;spacingRight=4;overflow=hidden;rotatable=0;points=[[0,0.5],[1,0.5]];portConstraint=eastwest;whiteSpace=wrap;html=1;" parent="0ySyAdyNpUcpGRWUpj3D-0" vertex="1">
          <mxGeometry y="26" width="348" height="72" as="geometry" />
        </mxCell>
        <mxCell id="0ySyAdyNpUcpGRWUpj3D-5" value="Field" style="swimlane;fontStyle=1;align=center;verticalAlign=top;childLayout=stackLayout;horizontal=1;startSize=26;horizontalStack=0;resizeParent=1;resizeParentMax=0;resizeLast=0;collapsible=1;marginBottom=0;whiteSpace=wrap;html=1;" parent="WIyWlLk6GJQsqaUBKTNV-1" vertex="1">
          <mxGeometry x="169" y="309" width="176" height="210" as="geometry" />
        </mxCell>
        <mxCell id="0ySyAdyNpUcpGRWUpj3D-6" value="- _data: Int&lt;br&gt;&lt;div&gt;- _background: Int&lt;/div&gt;&lt;div&gt;- _color: Int&lt;br&gt;&lt;/div&gt;" style="text;strokeColor=none;fillColor=none;align=left;verticalAlign=top;spacingLeft=4;spacingRight=4;overflow=hidden;rotatable=0;points=[[0,0.5],[1,0.5]];portConstraint=eastwest;whiteSpace=wrap;html=1;" parent="0ySyAdyNpUcpGRWUpj3D-5" vertex="1">
          <mxGeometry y="26" width="176" height="54" as="geometry" />
        </mxCell>
        <mxCell id="0ySyAdyNpUcpGRWUpj3D-7" value="" style="line;strokeWidth=1;fillColor=none;align=left;verticalAlign=middle;spacingTop=-1;spacingLeft=3;spacingRight=3;rotatable=0;labelPosition=right;points=[];portConstraint=eastwest;strokeColor=inherit;" parent="0ySyAdyNpUcpGRWUpj3D-5" vertex="1">
          <mxGeometry y="80" width="176" height="8" as="geometry" />
        </mxCell>
        <mxCell id="0ySyAdyNpUcpGRWUpj3D-8" value="«property»&lt;br&gt;&lt;div&gt;+ Data: Int&lt;/div&gt;&lt;div&gt;+ Content: String&lt;/div&gt;&lt;div&gt;+ static FontSize: Int&lt;/div&gt;&lt;div&gt;+ Background: Int&lt;/div&gt;&lt;div&gt;+ ForeColor: Int&lt;br&gt;&lt;/div&gt;+ X(): Int&lt;br&gt;+ Y(): Int" style="text;strokeColor=none;fillColor=none;align=left;verticalAlign=top;spacingLeft=4;spacingRight=4;overflow=hidden;rotatable=0;points=[[0,0.5],[1,0.5]];portConstraint=eastwest;whiteSpace=wrap;html=1;" parent="0ySyAdyNpUcpGRWUpj3D-5" vertex="1">
          <mxGeometry y="88" width="176" height="122" as="geometry" />
        </mxCell>
        <mxCell id="0ySyAdyNpUcpGRWUpj3D-9" value="" style="endArrow=block;dashed=1;endFill=0;endSize=12;html=1;rounded=0;entryX=0.568;entryY=0.032;entryDx=0;entryDy=0;entryPerimeter=0;exitX=0.494;exitY=1.029;exitDx=0;exitDy=0;exitPerimeter=0;" parent="WIyWlLk6GJQsqaUBKTNV-1" source="0ySyAdyNpUcpGRWUpj3D-8" target="0ySyAdyNpUcpGRWUpj3D-0" edge="1">
          <mxGeometry width="160" relative="1" as="geometry">
            <mxPoint x="325" y="289" as="sourcePoint" />
            <mxPoint x="533" y="279" as="targetPoint" />
            <Array as="points" />
          </mxGeometry>
        </mxCell>
        <mxCell id="0ySyAdyNpUcpGRWUpj3D-10" value="" style="endArrow=block;dashed=1;endFill=0;endSize=12;html=1;rounded=0;exitX=0.005;exitY=0.65;exitDx=0;exitDy=0;exitPerimeter=0;" parent="WIyWlLk6GJQsqaUBKTNV-1" source="380VDxpQ8Sr3hK74BQXG-19" target="0ySyAdyNpUcpGRWUpj3D-0" edge="1">
          <mxGeometry width="160" relative="1" as="geometry">
            <mxPoint x="423" y="312" as="sourcePoint" />
            <mxPoint x="442" y="216" as="targetPoint" />
            <Array as="points">
              <mxPoint x="217" y="603" />
            </Array>
          </mxGeometry>
        </mxCell>
        <mxCell id="0ySyAdyNpUcpGRWUpj3D-12" value="*" style="edgeLabel;html=1;align=center;verticalAlign=middle;resizable=0;points=[];" parent="WIyWlLk6GJQsqaUBKTNV-1" vertex="1" connectable="0">
          <mxGeometry x="533.0039313836215" y="323.9988838369297" as="geometry">
            <mxPoint x="-173" y="53" as="offset" />
          </mxGeometry>
        </mxCell>
        <mxCell id="0ySyAdyNpUcpGRWUpj3D-15" value="DelegateCommand: ICommand" style="swimlane;fontStyle=1;align=center;verticalAlign=top;childLayout=stackLayout;horizontal=1;startSize=26;horizontalStack=0;resizeParent=1;resizeParentMax=0;resizeLast=0;collapsible=1;marginBottom=0;whiteSpace=wrap;html=1;" parent="WIyWlLk6GJQsqaUBKTNV-1" vertex="1">
          <mxGeometry x="585" y="-287" width="336" height="263" as="geometry" />
        </mxCell>
        <mxCell id="0ySyAdyNpUcpGRWUpj3D-16" value="&amp;nbsp;_canExecute: Func&amp;lt;Object, Boolean&amp;gt; {readOnly}&lt;br&gt;- _execute: Action&amp;lt;Object&amp;gt; {readOnly}" style="text;strokeColor=none;fillColor=none;align=left;verticalAlign=top;spacingLeft=4;spacingRight=4;overflow=hidden;rotatable=0;points=[[0,0.5],[1,0.5]];portConstraint=eastwest;whiteSpace=wrap;html=1;" parent="0ySyAdyNpUcpGRWUpj3D-15" vertex="1">
          <mxGeometry y="26" width="336" height="54" as="geometry" />
        </mxCell>
        <mxCell id="0ySyAdyNpUcpGRWUpj3D-17" value="" style="line;strokeWidth=1;fillColor=none;align=left;verticalAlign=middle;spacingTop=-1;spacingLeft=3;spacingRight=3;rotatable=0;labelPosition=right;points=[];portConstraint=eastwest;strokeColor=inherit;" parent="0ySyAdyNpUcpGRWUpj3D-15" vertex="1">
          <mxGeometry y="80" width="336" height="8" as="geometry" />
        </mxCell>
        <mxCell id="0ySyAdyNpUcpGRWUpj3D-18" value="+ CanExecute(Object): Boolean&lt;br&gt;+ DelegateCommand(Action&amp;lt;Object&amp;gt;)&lt;br&gt;+ DelegateCommand(Func&amp;lt;Object, Boolean&amp;gt;, Action&amp;lt;Object&amp;gt;)&lt;br&gt;+ Execute(Object): void&lt;br&gt;+ RaiseCanExecuteChanged(): void&lt;br&gt;«event»&lt;br&gt;+ CanExecuteChanged(): EventHandler" style="text;strokeColor=none;fillColor=none;align=left;verticalAlign=top;spacingLeft=4;spacingRight=4;overflow=hidden;rotatable=0;points=[[0,0.5],[1,0.5]];portConstraint=eastwest;whiteSpace=wrap;html=1;" parent="0ySyAdyNpUcpGRWUpj3D-15" vertex="1">
          <mxGeometry y="88" width="336" height="175" as="geometry" />
        </mxCell>
        <mxCell id="0ySyAdyNpUcpGRWUpj3D-19" value="" style="endArrow=diamondThin;endFill=0;endSize=24;html=1;rounded=0;entryX=0.5;entryY=0;entryDx=0;entryDy=0;exitX=-0.001;exitY=0.254;exitDx=0;exitDy=0;exitPerimeter=0;" parent="WIyWlLk6GJQsqaUBKTNV-1" source="0ySyAdyNpUcpGRWUpj3D-18" target="0ySyAdyNpUcpGRWUpj3D-5" edge="1">
          <mxGeometry width="160" relative="1" as="geometry">
            <mxPoint x="240" y="595" as="sourcePoint" />
            <mxPoint x="583" y="333" as="targetPoint" />
            <Array as="points">
              <mxPoint x="266" y="-136" />
            </Array>
          </mxGeometry>
        </mxCell>
        <mxCell id="0ySyAdyNpUcpGRWUpj3D-21" value="&lt;div&gt;&lt;br&gt;&lt;/div&gt;" style="edgeLabel;html=1;align=center;verticalAlign=middle;resizable=0;points=[];" parent="0ySyAdyNpUcpGRWUpj3D-19" vertex="1" connectable="0">
          <mxGeometry x="0.6836" y="-1" relative="1" as="geometry">
            <mxPoint as="offset" />
          </mxGeometry>
        </mxCell>
        <mxCell id="0ySyAdyNpUcpGRWUpj3D-22" value="" style="endArrow=diamondThin;endFill=0;endSize=24;html=1;rounded=0;exitX=0.526;exitY=1.021;exitDx=0;exitDy=0;exitPerimeter=0;entryX=0.534;entryY=0.002;entryDx=0;entryDy=0;entryPerimeter=0;" parent="WIyWlLk6GJQsqaUBKTNV-1" source="0ySyAdyNpUcpGRWUpj3D-18" target="380VDxpQ8Sr3hK74BQXG-16" edge="1">
          <mxGeometry width="160" relative="1" as="geometry">
            <mxPoint x="895" y="611" as="sourcePoint" />
            <mxPoint x="724" y="504" as="targetPoint" />
            <Array as="points" />
          </mxGeometry>
        </mxCell>
        <mxCell id="0ySyAdyNpUcpGRWUpj3D-24" value="&lt;div&gt;&lt;br&gt;&lt;/div&gt;" style="edgeLabel;html=1;align=center;verticalAlign=middle;resizable=0;points=[];" parent="0ySyAdyNpUcpGRWUpj3D-22" vertex="1" connectable="0">
          <mxGeometry x="0.6836" y="-1" relative="1" as="geometry">
            <mxPoint as="offset" />
          </mxGeometry>
        </mxCell>
        <mxCell id="vY0c4WJs0HZjQSsos6QA-0" value="StoredGameViewModel" style="swimlane;fontStyle=1;align=center;verticalAlign=top;childLayout=stackLayout;horizontal=1;startSize=26;horizontalStack=0;resizeParent=1;resizeParentMax=0;resizeLast=0;collapsible=1;marginBottom=0;whiteSpace=wrap;html=1;" vertex="1" parent="WIyWlLk6GJQsqaUBKTNV-1">
          <mxGeometry x="603" y="890" width="283" height="156" as="geometry" />
        </mxCell>
        <mxCell id="vY0c4WJs0HZjQSsos6QA-2" value="" style="line;strokeWidth=1;fillColor=none;align=left;verticalAlign=middle;spacingTop=-1;spacingLeft=3;spacingRight=3;rotatable=0;labelPosition=right;points=[];portConstraint=eastwest;strokeColor=inherit;" vertex="1" parent="vY0c4WJs0HZjQSsos6QA-0">
          <mxGeometry y="26" width="283" height="8" as="geometry" />
        </mxCell>
        <mxCell id="vY0c4WJs0HZjQSsos6QA-3" value="«property»&lt;br&gt;&lt;div&gt;+ Modified(): DateTime&lt;/div&gt;&lt;div&gt;+ Name(): Int&lt;/div&gt;&lt;div&gt;+ LoadGameCommand: DelegateCommand&lt;/div&gt;&lt;div&gt;+ SaveGameCommand: DelegateCommand&lt;br&gt;&lt;/div&gt;" style="text;strokeColor=none;fillColor=none;align=left;verticalAlign=top;spacingLeft=4;spacingRight=4;overflow=hidden;rotatable=0;points=[[0,0.5],[1,0.5]];portConstraint=eastwest;whiteSpace=wrap;html=1;" vertex="1" parent="vY0c4WJs0HZjQSsos6QA-0">
          <mxGeometry y="34" width="283" height="122" as="geometry" />
        </mxCell>
        <mxCell id="vY0c4WJs0HZjQSsos6QA-8" value="StoredGameBrowserViewModel" style="swimlane;fontStyle=1;align=center;verticalAlign=top;childLayout=stackLayout;horizontal=1;startSize=26;horizontalStack=0;resizeParent=1;resizeParentMax=0;resizeLast=0;collapsible=1;marginBottom=0;whiteSpace=wrap;html=1;" vertex="1" parent="WIyWlLk6GJQsqaUBKTNV-1">
          <mxGeometry x="609" y="1080" width="362" height="242" as="geometry" />
        </mxCell>
        <mxCell id="vY0c4WJs0HZjQSsos6QA-9" value="- _model: StoredGameBrowserModel" style="text;strokeColor=none;fillColor=none;align=left;verticalAlign=top;spacingLeft=4;spacingRight=4;overflow=hidden;rotatable=0;points=[[0,0.5],[1,0.5]];portConstraint=eastwest;whiteSpace=wrap;html=1;" vertex="1" parent="vY0c4WJs0HZjQSsos6QA-8">
          <mxGeometry y="26" width="362" height="27" as="geometry" />
        </mxCell>
        <mxCell id="vY0c4WJs0HZjQSsos6QA-10" value="" style="line;strokeWidth=1;fillColor=none;align=left;verticalAlign=middle;spacingTop=-1;spacingLeft=3;spacingRight=3;rotatable=0;labelPosition=right;points=[];portConstraint=eastwest;strokeColor=inherit;" vertex="1" parent="vY0c4WJs0HZjQSsos6QA-8">
          <mxGeometry y="53" width="362" height="8" as="geometry" />
        </mxCell>
        <mxCell id="vY0c4WJs0HZjQSsos6QA-11" value="&lt;div&gt;+ StoredGameBrowserViewModel(StoredGameBrowserModel)&lt;/div&gt;&lt;div&gt;- UpdateStoredGames(): void&lt;/div&gt;&lt;div&gt;- Model_StoreChanged(object, EventArgs): void&lt;/div&gt;&lt;div&gt;&amp;lt;&amp;lt;event&amp;gt;&lt;/div&gt;&lt;div&gt;+ GameLoading() : EventHandler&amp;lt;StoredGameEventArgs&amp;gt;&lt;/div&gt;&lt;div&gt;+ GameSaving(): EventHandler&amp;lt;StoredGameEventArgs&amp;gt;&lt;/div&gt;&lt;div&gt;&amp;lt;&amp;lt;property&amp;gt;&amp;gt;&lt;/div&gt;&lt;div&gt;+ StoredGames(): ObservableCollection&amp;lt;StoredGameViewModel&amp;gt;&lt;br&gt;&lt;/div&gt;" style="text;strokeColor=none;fillColor=none;align=left;verticalAlign=top;spacingLeft=4;spacingRight=4;overflow=hidden;rotatable=0;points=[[0,0.5],[1,0.5]];portConstraint=eastwest;whiteSpace=wrap;html=1;" vertex="1" parent="vY0c4WJs0HZjQSsos6QA-8">
          <mxGeometry y="61" width="362" height="181" as="geometry" />
        </mxCell>
        <mxCell id="vY0c4WJs0HZjQSsos6QA-12" value="" style="endArrow=block;dashed=1;endFill=0;endSize=12;html=1;rounded=0;entryX=1;entryY=0;entryDx=0;entryDy=0;exitX=-0.018;exitY=0.303;exitDx=0;exitDy=0;exitPerimeter=0;" edge="1" parent="WIyWlLk6GJQsqaUBKTNV-1" source="vY0c4WJs0HZjQSsos6QA-3" target="0ySyAdyNpUcpGRWUpj3D-0">
          <mxGeometry width="160" relative="1" as="geometry">
            <mxPoint x="474" y="961" as="sourcePoint" />
            <mxPoint x="470" y="1399" as="targetPoint" />
            <Array as="points" />
          </mxGeometry>
        </mxCell>
        <mxCell id="vY0c4WJs0HZjQSsos6QA-13" value="" style="endArrow=block;dashed=1;endFill=0;endSize=12;html=1;rounded=0;entryX=1.011;entryY=0.903;entryDx=0;entryDy=0;exitX=0;exitY=0.5;exitDx=0;exitDy=0;entryPerimeter=0;" edge="1" parent="WIyWlLk6GJQsqaUBKTNV-1" source="vY0c4WJs0HZjQSsos6QA-9" target="0ySyAdyNpUcpGRWUpj3D-3">
          <mxGeometry width="160" relative="1" as="geometry">
            <mxPoint x="610" y="1111" as="sourcePoint" />
            <mxPoint x="414" y="1108" as="targetPoint" />
            <Array as="points" />
          </mxGeometry>
        </mxCell>
        <mxCell id="vY0c4WJs0HZjQSsos6QA-14" value="" style="endArrow=diamondThin;endFill=0;endSize=24;html=1;rounded=0;exitX=0.201;exitY=0.019;exitDx=0;exitDy=0;entryX=0.256;entryY=1.011;entryDx=0;entryDy=0;entryPerimeter=0;exitPerimeter=0;" edge="1" parent="WIyWlLk6GJQsqaUBKTNV-1" source="vY0c4WJs0HZjQSsos6QA-0" target="380VDxpQ8Sr3hK74BQXG-19">
          <mxGeometry width="160" relative="1" as="geometry">
            <mxPoint x="325" y="808" as="sourcePoint" />
            <mxPoint x="552" y="807" as="targetPoint" />
            <Array as="points" />
          </mxGeometry>
        </mxCell>
        <mxCell id="vY0c4WJs0HZjQSsos6QA-16" value="&lt;div&gt;&lt;br&gt;&lt;/div&gt;" style="edgeLabel;html=1;align=center;verticalAlign=middle;resizable=0;points=[];" vertex="1" connectable="0" parent="vY0c4WJs0HZjQSsos6QA-14">
          <mxGeometry x="0.6836" y="-1" relative="1" as="geometry">
            <mxPoint as="offset" />
          </mxGeometry>
        </mxCell>
        <mxCell id="vY0c4WJs0HZjQSsos6QA-17" value="" style="endArrow=diamondThin;endFill=0;endSize=24;html=1;rounded=0;entryX=1;entryY=0.5;entryDx=0;entryDy=0;exitX=1.021;exitY=0.697;exitDx=0;exitDy=0;exitPerimeter=0;" edge="1" parent="WIyWlLk6GJQsqaUBKTNV-1" source="0ySyAdyNpUcpGRWUpj3D-18" target="vY0c4WJs0HZjQSsos6QA-0">
          <mxGeometry width="160" relative="1" as="geometry">
            <mxPoint x="1080" y="-73" as="sourcePoint" />
            <mxPoint x="672" y="833" as="targetPoint" />
            <Array as="points">
              <mxPoint x="1086" y="-77" />
              <mxPoint x="1092" y="981" />
            </Array>
          </mxGeometry>
        </mxCell>
        <mxCell id="vY0c4WJs0HZjQSsos6QA-18" value="&lt;div&gt;&lt;br&gt;&lt;/div&gt;" style="edgeLabel;html=1;align=center;verticalAlign=middle;resizable=0;points=[];" vertex="1" connectable="0" parent="vY0c4WJs0HZjQSsos6QA-17">
          <mxGeometry x="0.6836" y="-1" relative="1" as="geometry">
            <mxPoint as="offset" />
          </mxGeometry>
        </mxCell>
      </root>
    </mxGraphModel>
  </diagram>
</mxfile>
